<?xml version="1.0" ?><svg enable-background="new 0 0 64 64" height="64px" version="1.1" viewBox="0 0 64 64" width="64px" xml:space="preserve" xmlns="http://www.w3.org/2000/svg" xmlns:xlink="http://www.w3.org/1999/xlink"><g id="Layer_1"><g><circle cx="32" cy="32" fill="#6de668" r="32"/></g><g opacity="0.2"><path d="M49.425,19.651l-13.711-7.917c-1.992-1.15-5.436-1.15-7.428,0l-13.711,7.917    c-2.048,1.182-3.714,4.068-3.714,6.433v15.832c0,2.365,1.667,5.251,3.714,6.433l13.711,7.917c0.996,0.575,2.315,0.892,3.714,0.892    s2.718-0.317,3.714-0.892l13.711-7.917c2.048-1.182,3.714-4.068,3.714-6.433V26.084C53.14,23.719,51.473,20.833,49.425,19.651z" fill="#231F20"/></g><g><g><path d="M35.464,10.168c-1.905-1.1-5.023-1.1-6.928,0l-13.711,7.916c-1.905,1.1-3.464,3.8-3.464,6v15.832     c0,2.2,1.559,4.9,3.464,6l13.711,7.916c1.905,1.1,5.023,1.1,6.928,0l13.711-7.916c1.905-1.1,3.464-3.8,3.464-6V24.084     c0-2.2-1.559-4.9-3.464-6L35.464,10.168z" fill="#E0E0D1"/><path d="M32,55.157c-1.399,0-2.718-0.316-3.714-0.893l-13.711-7.916c-2.048-1.182-3.714-4.067-3.714-6.433V24.084     c0-2.365,1.667-5.251,3.714-6.433l13.711-7.916c1.992-1.152,5.436-1.152,7.428,0l13.711,7.916     c2.048,1.182,3.714,4.067,3.714,6.433v15.832c0,2.365-1.667,5.251-3.714,6.433l-13.711,7.916     C34.718,54.841,33.399,55.157,32,55.157z M32,9.843c-1.226,0-2.367,0.27-3.214,0.758l-13.711,7.916     c-1.742,1.006-3.214,3.556-3.214,5.567v15.832c0,2.012,1.472,4.562,3.214,5.567l13.711,7.916c1.693,0.977,4.734,0.977,6.428,0     l13.711-7.916c1.742-1.006,3.214-3.556,3.214-5.567V24.084c0-2.012-1.472-4.562-3.214-5.567l-13.711-7.916     C34.367,10.112,33.226,9.843,32,9.843z" fill="#E0E0D1"/></g><g><path d="M32,29.825c-1.123,0-2.203-0.252-2.964-0.691l-13.711-7.917c-0.59-0.341-0.929-0.754-0.929-1.134     c0-0.379,0.339-0.793,0.929-1.133l13.711-7.917c0.761-0.439,1.841-0.691,2.964-0.691s2.203,0.252,2.964,0.691l13.711,7.917     c0.59,0.34,0.929,0.754,0.929,1.133c0,0.38-0.339,0.793-0.929,1.134l-13.711,7.916C34.203,29.573,33.123,29.825,32,29.825z" fill="#f5efef"/></g><g><path d="M29.909,53.302c-0.3,0-0.659-0.116-1.039-0.335L15.158,45.05c-1.607-0.927-2.964-3.278-2.964-5.134     V24.084c0-0.442,0.09-1.47,0.925-1.47c0.299,0,0.659,0.116,1.039,0.336l13.711,7.916c1.606,0.928,2.964,3.279,2.964,5.134v15.833     c0,0.517-0.112,0.941-0.315,1.195C30.368,53.215,30.174,53.302,29.909,53.302L29.909,53.302z" fill="#f1eaea"/></g><g><path d="M33.925,53.302c-0.835,0-0.925-1.027-0.925-1.469V36c0-1.855,1.357-4.206,2.964-5.134l13.711-7.916     c0.38-0.22,0.74-0.336,1.039-0.336c0.835,0,0.925,1.028,0.925,1.47v15.832c0,1.855-1.357,4.207-2.964,5.134l-13.711,7.917     C34.584,53.186,34.225,53.302,33.925,53.302L33.925,53.302z" fill="#faf2f2"/></g><g><path d="M32,21.5c-1.265,0-2.333-0.648-2.333-1.416s1.069-1.417,2.333-1.417s2.333,0.649,2.333,1.417     S33.265,21.5,32,21.5z" fill="#4F5D73"/></g><g><path d="M15.146,42.368c-0.768,0-1.416-0.951-1.416-2.076s0.648-2.077,1.416-2.077s1.416,0.951,1.416,2.077     S15.913,42.368,15.146,42.368z" fill="#4F5D73"/></g><g><path d="M48.354,42.368c-0.768,0-1.416-0.951-1.416-2.076s0.648-2.077,1.416-2.077s1.416,0.951,1.416,2.077     S49.122,42.368,48.354,42.368z" fill="#4F5D73"/></g><g><path d="M15.146,30.431c-0.768,0-1.416-0.951-1.416-2.076c0-1.126,0.648-2.077,1.416-2.077     s1.416,0.951,1.416,2.077C16.562,29.48,15.913,30.431,15.146,30.431z" fill="#4F5D73"/></g><g><path d="M26.917,38.118c-0.768,0-1.416-0.951-1.416-2.077c0-1.126,0.648-2.077,1.416-2.077     s1.417,0.951,1.417,2.077C28.333,37.167,27.685,38.118,26.917,38.118z" fill="#4F5D73"/></g><g><path d="M36.959,38.118c-0.768,0-1.416-0.951-1.416-2.077c0-1.126,0.648-2.077,1.416-2.077     s1.417,0.951,1.417,2.077C38.375,37.167,37.726,38.118,36.959,38.118z" fill="#4F5D73"/></g><g><path d="M26.917,49.139c-0.768,0-1.416-0.951-1.416-2.077s0.648-2.077,1.416-2.077s1.417,0.951,1.417,2.077     S27.685,49.139,26.917,49.139z" fill="#4F5D73"/></g></g></g><g id="Layer_2"/></svg>